<?xml version="1.0" encoding="utf-8"?>
<!-- Generator: Adobe Illustrator 23.0.0, SVG Export Plug-In . SVG Version: 6.00 Build 0)  -->
<svg version="1.1" id="Layer_1" xmlns="http://www.w3.org/2000/svg" xmlns:xlink="http://www.w3.org/1999/xlink" x="0px" y="0px"
	 viewBox="0 0 48 42" style="enable-background:new 0 0 48 42;" xml:space="preserve">
<style type="text/css">
	.st0{fill:none;stroke:#FFFFFF;stroke-width:2;stroke-linecap:round;stroke-linejoin:round;stroke-miterlimit:10;}
</style>
<g>
	<path class="st0" d="M11,15H4c-1.66,0-3,1.34-3,3v6c0,1.66,1.34,3,3,3h7l14,14V1L11,15z"/>
	<path class="st0" d="M40,5c4.4,3.85,7,9.69,7,16c0,6.31-2.6,12.15-7,16"/>
	<path class="st0" d="M35,9c3.33,2.75,6,7.34,6,12c0,4.65-2.68,9.25-6,12"/>
	<path class="st0" d="M31,14c2.25,1.64,4,4,4,7c0,3-1.75,5.36-4,7"/>
</g>
</svg>
